<?xml version="1.0" ?><!DOCTYPE svg  PUBLIC '-//W3C//DTD SVG 1.1//EN'  'http://www.w3.org/Graphics/SVG/1.1/DTD/svg11.dtd'><svg enable-background="new 0 0 128 128" height="128px" id="Layer_1" version="1.1" viewBox="0 0 128 128" width="128px" xml:space="preserve" xmlns="http://www.w3.org/2000/svg" xmlns:xlink="http://www.w3.org/1999/xlink"><g><path d="M110.43,60.082c-0.164-0.518-0.529-0.947-1.016-1.19c-0.486-0.242-1.05-0.276-1.562-0.096l-22.61,8.011   c-0.568,0.201-1.015,0.647-1.218,1.217l-1.445,4.074l3.57-20.275c0.125-0.711-0.144-1.437-0.703-1.895L59.244,28.453   c-0.412-0.338-0.945-0.497-1.473-0.442c-0.531,0.055-1.017,0.319-1.352,0.734L35.504,54.703c-0.385,0.478-0.529,1.105-0.392,1.703   l6.419,27.897l-5.403-13.53c-0.214-0.534-0.647-0.951-1.191-1.145L12.32,61.635c-0.528-0.186-1.109-0.145-1.603,0.119   c-0.494,0.262-0.856,0.719-0.998,1.26L3.51,86.705c-0.176,0.673,0.01,1.389,0.491,1.891l25.06,26.135l2.817,7.056   c0.222,0.557,0.682,0.983,1.253,1.165l15.628,4.956c0.016,0.005,0.033,0.003,0.049,0.008c0.178,0.052,0.361,0.086,0.553,0.086   h0.001c0,0,0,0,0.001,0c0.001,0,0.001,0,0.002,0c0.106-0.001,0.214-0.009,0.323-0.026c0.09-0.015,0.173-0.043,0.257-0.068   c0.026-0.008,0.055-0.014,0.081-0.021c0.181-0.063,0.353-0.158,0.512-0.273c0.014-0.01,0.031-0.014,0.044-0.023l11.351-8.734   l12.101,6.994c0.024,0.014,0.052,0.019,0.075,0.03c0.105,0.056,0.216,0.101,0.328,0.136c0.047,0.016,0.093,0.03,0.141,0.043   c0.029,0.006,0.055,0.019,0.084,0.023c0.124,0.023,0.246,0.034,0.367,0.034c0.003,0,0.004,0.001,0.006,0.001c0,0,0,0,0.001,0h0.001   c0.193,0,0.382-0.035,0.562-0.09c0.016-0.004,0.03-0.002,0.047-0.006l14.791-4.748c0.578-0.188,1.043-0.627,1.258-1.195l2.94-7.751   l22.578-27.634c0.427-0.521,0.562-1.223,0.359-1.864L110.43,60.082z M99.114,100.521l0.546-1.439   c0.007-0.018,0.006-0.037,0.012-0.057c0.055-0.156,0.088-0.317,0.102-0.479c0.004-0.032,0.01-0.063,0.012-0.097   c0.006-0.176-0.012-0.352-0.051-0.521c-0.01-0.037-0.022-0.076-0.034-0.113c-0.021-0.068-0.033-0.139-0.062-0.205   c-0.031-0.072-0.072-0.137-0.108-0.202c-0.02-0.033-0.034-0.07-0.056-0.104c-0.094-0.146-0.207-0.282-0.342-0.403   c-0.011-0.012-0.018-0.024-0.029-0.035l-2.926-2.547l3.805-6.346l10.807-1.738L99.114,100.521z M35.242,119.424l-3.844-9.629   l13.577,1.885l1.886,11.428L35.242,119.424z M105.098,64.016l-6.908,17.998l-9.071-12.336L105.098,64.016z M64.286,98.857   l11.912,8.431l-2.601,13.685l-9.789-5.656L64.286,98.857z M36.07,96.039l15.536-1.1l7.136,9.194l-12.122,3.701l-0.075,0.022   l-15.261-2.117L36.07,96.039z M83.417,88.516L94.04,97.76l-13.071,5.409L83.417,88.516z M79.425,88.145l-2.468,14.778   l-10.775-7.626L79.425,88.145z M83.207,83.029c-0.066-0.059-0.146-0.09-0.217-0.137l3.542-9.979l9.812,13.344l-3.233,5.394   L83.207,83.029z M63.876,91.996L63.502,64.48l18.004-9.361l-5.322,30.23L63.876,91.996z M48.966,111.302l11.055-3.376l-0.217,7.518   l-9.011,6.935L48.966,111.302z M80.166,107.831l14.111-5.84l-5.979,15.764l-10.67,3.425L80.166,107.831z M101.857,83.619   l6.475-16.867l4.732,15.064L101.857,83.619z M80.564,51.1l-17.397,9.046l-2.69-25.511L80.564,51.1z M56.496,35.025l2.686,25.471   l-18.696-5.6L56.496,35.025z M39.782,58.861l19.724,5.909l0.467,34.426l-5.862-7.553c-0.41-0.528-1.07-0.81-1.721-0.77   l-5.158,0.365L39.782,58.861z M40.192,91.737l-5.549,0.393c-0.709,0.052-1.338,0.474-1.652,1.11l-1.786,3.619l-8.062-10.578   l10.435-11.107L40.192,91.737z M30.714,72.38l-9.481,10.093l-6.121-15.606L30.714,72.38z M12.032,69.965l5.641,14.387l-9.596,0.707   L12.032,69.965z M19.591,88.221l9.637,12.646l-2.691,5.454L9.869,88.938L19.591,88.221z"/><path d="M39.556,32c0,0,1.21-9.573,3.818-12.182v-0.001C45.982,17.211,55.556,16,55.556,16s-9.573-1.211-12.181-3.817   C40.766,9.574,39.556,0,39.556,0s-1.209,9.573-3.817,12.181v0.001C33.13,14.789,23.556,16,23.556,16s9.574,1.211,12.182,3.817   C38.346,22.426,39.556,32,39.556,32z"/><path d="M90.557,42c0,0,1.516-11.967,4.772-15.228C98.588,23.514,110.557,22,110.557,22s-11.969-1.514-15.228-4.772   C92.068,13.968,90.557,2,90.557,2s-1.515,11.966-4.773,15.226C82.521,20.486,70.557,22,70.557,22s11.967,1.514,15.227,4.772   C89.042,30.032,90.557,42,90.557,42z"/><path d="M18.556,52c0,0,0.909-7.18,2.864-9.136C23.375,40.908,30.556,40,30.556,40s-7.181-0.908-9.136-2.863   C19.465,35.181,18.556,28,18.556,28s-0.908,7.18-2.863,9.136C13.737,39.092,6.556,40,6.556,40s7.181,0.908,9.137,2.864   C17.647,44.819,18.556,52,18.556,52z"/><path d="M100.557,44c0,0,7.182,0.909,9.137,2.863c1.955,1.956,2.863,9.137,2.863,9.137s0.908-7.18,2.862-9.137h0.001   c1.954-1.954,9.137-2.863,9.137-2.863s-7.183-0.908-9.137-2.863h-0.001c-1.955-1.956-2.862-9.137-2.862-9.137   s-0.908,7.18-2.863,9.137C107.736,43.091,100.557,44,100.557,44z"/></g></svg>