<?xml version="1.0" ?><!DOCTYPE svg  PUBLIC '-//W3C//DTD SVG 1.1//EN'  'http://www.w3.org/Graphics/SVG/1.1/DTD/svg11.dtd'><svg enable-background="new 0 0 128 128" height="128px" id="Layer_1" version="1.1" viewBox="0 0 128 128" width="128px" xml:space="preserve" xmlns="http://www.w3.org/2000/svg" xmlns:xlink="http://www.w3.org/1999/xlink"><g><path d="M64,128C28.71,128,0,99.29,0,64C0,28.71,28.71,0,64,0c35.29,0,64,28.71,64,64C128,99.29,99.29,128,64,128z M64,4   C30.916,4,4,30.916,4,64s26.916,60,60,60s60-26.916,60-60S97.084,4,64,4z"/></g><g><path d="M61.12,53.418H22c-1.104,0-2-0.896-2-2s0.896-2,2-2h39.12c5.334,0,9.673-4.339,9.673-9.672   c0-5.333-4.339-9.671-9.673-9.671c-5.333,0-9.671,4.338-9.671,9.671c0,1.104-0.896,2-2,2s-2-0.896-2-2   c0-7.538,6.133-13.671,13.671-13.671c7.539,0,13.673,6.133,13.673,13.671C74.793,47.285,68.659,53.418,61.12,53.418z"/></g><g><path d="M71.464,101.925c-7.538,0-13.67-6.132-13.67-13.67c0-1.104,0.896-2,2-2s2,0.896,2,2c0,5.332,4.338,9.67,9.67,9.67   c5.335,0,9.675-4.338,9.675-9.67c0-5.333-4.34-9.672-9.675-9.672H26.906c-1.104,0-2-0.896-2-2s0.896-2,2-2h44.558   c7.54,0,13.675,6.133,13.675,13.672C85.139,95.793,79.004,101.925,71.464,101.925z"/></g><g><path d="M94.327,65.161H31.812c-1.104,0-2-0.896-2-2s0.896-2,2-2h62.515c5.334,0,9.673-4.338,9.673-9.671   c0-5.333-4.339-9.672-9.673-9.672c-5.333,0-9.671,4.339-9.671,9.672c0,1.104-0.896,2-2,2s-2-0.896-2-2   c0-7.539,6.133-13.672,13.671-13.672c7.539,0,13.673,6.133,13.673,13.672C108,59.028,101.866,65.161,94.327,65.161z"/></g></svg>