<?xml version="1.0" ?><!DOCTYPE svg  PUBLIC '-//W3C//DTD SVG 1.1//EN'  'http://www.w3.org/Graphics/SVG/1.1/DTD/svg11.dtd'><svg enable-background="new 0 0 128 128" height="128px" id="Layer_1" version="1.1" viewBox="0 0 128 128" width="128px" xml:space="preserve" xmlns="http://www.w3.org/2000/svg" xmlns:xlink="http://www.w3.org/1999/xlink"><g><path d="M64,0C28.71,0,0,28.71,0,64c0,35.29,28.71,64,64,64c35.29,0,64-28.71,64-64C128,28.71,99.29,0,64,0z M64,124   C30.916,124,4,97.084,4,64S30.916,4,64,4s60,26.916,60,60S97.084,124,64,124z"/><path d="M92.863,35.574c-0.008-0.036-0.023-0.068-0.032-0.103c-0.018-0.064-0.036-0.127-0.06-0.189   c-0.023-0.059-0.049-0.116-0.077-0.172c-0.028-0.059-0.059-0.115-0.093-0.17c-0.033-0.053-0.068-0.104-0.106-0.154   c-0.04-0.053-0.081-0.104-0.127-0.153c-0.042-0.045-0.086-0.087-0.132-0.128c-0.05-0.045-0.102-0.088-0.156-0.128   c-0.022-0.016-0.041-0.037-0.064-0.052l-12.449-8.3c-0.028-0.019-0.062-0.03-0.091-0.047c-0.074-0.044-0.148-0.084-0.227-0.118   c-0.05-0.021-0.099-0.04-0.149-0.057c-0.081-0.027-0.163-0.049-0.246-0.066c-0.032-0.006-0.062-0.02-0.094-0.025l-24.095-3.688   c-0.556-0.083-1.12,0.067-1.557,0.419L33.63,38.119c-0.023,0.018-0.041,0.041-0.062,0.061c-0.042,0.037-0.081,0.075-0.12,0.116   c-0.049,0.051-0.095,0.104-0.138,0.159c-0.034,0.043-0.066,0.088-0.097,0.135c-0.041,0.063-0.077,0.129-0.111,0.197   c-0.015,0.03-0.036,0.057-0.05,0.088c-0.008,0.018-0.01,0.036-0.017,0.054c-0.03,0.072-0.051,0.147-0.072,0.223   c-0.013,0.049-0.03,0.098-0.04,0.147c-0.002,0.013-0.008,0.026-0.01,0.039l-5.399,31.368c-0.08,0.465,0.007,0.943,0.246,1.351   l17.609,30.024c0.015,0.025,0.036,0.046,0.052,0.07c0.04,0.062,0.082,0.12,0.128,0.177c0.036,0.044,0.072,0.087,0.112,0.127   c0.049,0.051,0.101,0.098,0.156,0.144c0.044,0.036,0.087,0.072,0.134,0.104c0.059,0.041,0.12,0.077,0.183,0.111   c0.049,0.027,0.097,0.055,0.148,0.077c0.067,0.03,0.137,0.053,0.207,0.075c0.038,0.013,0.073,0.031,0.112,0.041l11.536,2.932h0   c0.129,0.033,0.264,0.054,0.403,0.06c0.03,0.001,0.06,0.002,0.089,0.002c0,0,0,0,0,0l0,0c0,0,0.001,0,0.001,0   c0.183,0,0.357-0.033,0.526-0.079c0.019-0.005,0.039-0.003,0.057-0.009l27.896-8.53c0.519-0.158,0.95-0.521,1.197-1.004   l11.988-23.516c0.207-0.407,0.27-0.874,0.175-1.322L92.863,35.574z M46.089,45.502l13.207-1.05l-2.555,57.004l-7.73-1.965   L46.089,45.502z M63.236,45.891l19.585,12.929l0.873,35.425l-22.939,7.015L63.236,45.891z M83.61,54.548L64.714,42.073   l13.894-11.882l9.979,6.655L83.61,54.548z M54.93,26.11l18.911,2.894L60.59,40.337l-16.261,1.292l-5.623-2.462L54.93,26.11z    M36.421,42.533l5.635,2.468l2.595,47.95L31.58,70.663L36.421,42.533z M87.566,89.024l-0.765-31.047l3.83-13.622l5.778,27.32   L87.566,89.024z"/></g></svg>