<?xml version="1.0" ?><!DOCTYPE svg  PUBLIC '-//W3C//DTD SVG 1.1//EN'  'http://www.w3.org/Graphics/SVG/1.1/DTD/svg11.dtd'><svg enable-background="new 0 0 128 128" height="128px" id="Layer_1" version="1.1" viewBox="0 0 128 128" width="128px" xml:space="preserve" xmlns="http://www.w3.org/2000/svg" xmlns:xlink="http://www.w3.org/1999/xlink"><g><g><path d="M64.874,108c-14.032,0-24.108-6.182-28.375-17.405c-2.702-7.096-3.455-16.728-1.83-23.422l1.606-6.618l2.228,6.436    c0.239,0.691,1.574,4.142,4.359,4.142c3.005,0,4.217-3.517,4.297-5.88c0.137-4.084-0.556-5.502-2.073-8.609    c-0.34-0.695-0.71-1.454-1.109-2.319c-2.148-4.648-2.328-10.926,2.117-14.469l3.649-2.908l-0.411,4.648    c-0.122,1.375,0.185,2.474,0.909,3.266c1.203,1.315,3.681,1.623,5.719,0.697c3.048-1.379,4.412-4.65,4.412-7.281    c0-2.334-1.158-4.146-2.384-6.064c-1.196-1.872-2.432-3.807-2.432-6.189c0-5.9,4.483-9.291,6.528-9.932l4.046-1.268l-1.595,3.928    c-0.78,1.922-0.919,3.5-0.424,4.824c0.413,1.162,2.114,2.332,3.916,3.57c1.968,1.352,4.198,2.885,6.013,5.101    c2.325,2.829,3.156,6.512,2.468,10.946c-0.125,0.822-0.366,1.736-0.621,2.704c-1.084,4.111-1.273,6.073,0.467,6.832    c0.451,0.197,0.896,0.301,1.284,0.301c0.549,0,1.362-0.175,2.095-1.686c0.594-1.232,0.4-1.984,0.049-3.351l-1.252-4.915    l4.144,2.45c0.229,0.136,5.604,3.424,5.088,12.688c-0.232,4.191-2.391,6.897-4.124,9.072c-0.72,0.902-1.399,1.755-1.892,2.626    c-0.698,1.237-0.81,2.682-0.276,3.595c0.349,0.597,0.942,0.887,1.815,0.887c1.773-0.006,2.707-0.545,3.845-2.217    c0.34-0.499,0.382-0.763,0.467-1.289c0.055-0.343,0.123-0.77,0.281-1.258l1.473-4.535l2.203,4.229    c1.921,3.687,2.634,6.495,2.629,10.362c0.001,4.671-1.686,11.81-6.421,17.829C83.998,102.3,76.974,108,64.874,108z M37.855,73.166    c-0.281,5.229,0.567,11.238,2.383,16.006C43.925,98.873,52.444,104,64.874,104c10.494,0,16.528-4.87,19.743-8.955    c4.104-5.217,5.565-11.354,5.564-15.357c0.002-1.59-0.139-2.94-0.479-4.277c-1.709,2.071-3.681,2.977-6.401,2.986    c-2.302,0-4.223-1.046-5.287-2.87c-1.264-2.165-1.169-5.069,0.248-7.578c0.648-1.148,1.461-2.168,2.247-3.153    c1.592-1.997,3.095-3.882,3.257-6.8c0.11-1.98-0.106-3.571-0.472-4.832c-1.664,3.363-4.255,3.867-5.657,3.867    c-0.949,0-1.919-0.213-2.883-0.634c-5.178-2.256-3.649-8.054-2.735-11.518c0.227-0.86,0.44-1.673,0.534-2.291    c0.508-3.267-0.033-5.889-1.605-7.802c-1.457-1.779-3.353-3.082-5.187-4.342c-2.352-1.617-4.573-3.144-5.408-5.498    c-0.161-0.429-0.285-0.872-0.372-1.327c-0.26,0.698-0.424,1.499-0.424,2.406c0,1.213,0.835,2.521,1.803,4.035    c1.343,2.101,3.013,4.715,3.013,8.218c0,3.916-2.091,8.812-6.762,10.925c-1.316,0.597-2.759,0.913-4.171,0.913    c-2.422,0-4.663-0.931-6.148-2.553c-0.236-0.258-0.479-0.561-0.711-0.912c-0.311,2.175,0.347,4.523,1.028,5.998    c0.385,0.837,0.743,1.569,1.07,2.239c1.595,3.264,2.648,5.42,2.478,10.5c-0.166,4.843-3.068,9.744-8.295,9.744    C40.852,75.132,39.18,74.345,37.855,73.166z"/></g></g><g><path d="M64,128C28.71,128,0,99.29,0,64C0,28.71,28.71,0,64,0c35.29,0,64,28.71,64,64C128,99.29,99.29,128,64,128z M64,4   C30.916,4,4,30.916,4,64s26.916,60,60,60s60-26.916,60-60S97.084,4,64,4z"/></g></svg>