<?xml version="1.0" ?><!DOCTYPE svg  PUBLIC '-//W3C//DTD SVG 1.1//EN'  'http://www.w3.org/Graphics/SVG/1.1/DTD/svg11.dtd'><svg enable-background="new 0 0 128 128" height="128px" id="Layer_1" version="1.1" viewBox="0 0 128 128" width="128px" xml:space="preserve" xmlns="http://www.w3.org/2000/svg" xmlns:xlink="http://www.w3.org/1999/xlink"><g><g><path d="M64,104c-15.232,0-27.625-12.715-27.625-28.343c0-13.377,8.696-26.573,16.368-38.216    c3.909-5.932,7.601-11.534,9.392-16.163l1.884-4.87l1.851,4.883c1.725,4.549,5.421,10.158,9.335,16.097    c7.696,11.678,16.42,24.914,16.42,38.27C91.625,91.285,79.232,104,64,104z M63.992,26.802c-2.073,3.985-4.93,8.32-7.909,12.841    C48.72,50.816,40.375,63.48,40.375,75.657C40.375,89.08,50.973,100,64,100c13.027,0,23.625-10.92,23.625-24.343    c0-12.156-8.373-24.86-15.76-36.068C68.893,35.078,66.041,30.751,63.992,26.802z"/></g></g><g><path d="M64,128C28.71,128,0,99.29,0,64C0,28.71,28.71,0,64,0c35.29,0,64,28.71,64,64C128,99.29,99.29,128,64,128z M64,4   C30.916,4,4,30.916,4,64s26.916,60,60,60s60-26.916,60-60S97.084,4,64,4z"/></g></svg>